<svg width="32" height="32" viewBox="0 0 32 32" fill="none" xmlns="http://www.w3.org/2000/svg">
<path d="M25.3333 3.99998C26.0406 3.99998 26.7189 4.28093 27.219 4.78103C27.719 5.28112 28 5.9594 28 6.66665V25.3333C28 26.0406 27.719 26.7188 27.219 27.2189C26.7189 27.719 26.0406 28 25.3333 28H6.66667C5.95942 28 5.28115 27.719 4.78105 27.2189C4.28095 26.7188 4 26.0406 4 25.3333V6.66665C4 5.9594 4.28095 5.28112 4.78105 4.78103C5.28115 4.28093 5.95942 3.99998 6.66667 3.99998H8V1.33331H10.6667V3.99998H21.3333V1.33331H24V3.99998H25.3333ZM25.3333 25.3333V12H6.66667V25.3333H25.3333Z" fill="white"/>
</svg>
