<?xml version="1.0" encoding="UTF-8" standalone="no"?>
<svg
   xmlns:dc="http://purl.org/dc/elements/1.1/"
   xmlns:cc="http://creativecommons.org/ns#"
   xmlns:rdf="http://www.w3.org/1999/02/22-rdf-syntax-ns#"
   xmlns:svg="http://www.w3.org/2000/svg"
   xmlns="http://www.w3.org/2000/svg"
   height="32"
   version="1.1"
   width="32"
   id="svg2">
  <metadata
     id="metadata18">
    <rdf:RDF>
      <cc:Work
         rdf:about="">
        <dc:format>image/svg+xml</dc:format>
        <dc:type
           rdf:resource="http://purl.org/dc/dcmitype/StillImage" />
        <dc:title></dc:title>
      </cc:Work>
    </rdf:RDF>
  </metadata>
  <defs
     id="defs16" />
  <g
     style="fill:none;stroke:#ffffff"
     transform="matrix(0.635644,0,0,0.635644,-3.2554414,-3.2554728)"
     id="layer1">
    <path
       style="fill:#ffffff;fill-rule:evenodd;stroke:none;stroke-width:2.14528322"
       d="m 30.292808,6.6947424 c -12.989308,0 -23.5981149,10.6088076 -23.5981149,23.5981156 0,12.989308 10.6088069,23.598114 23.5981149,23.598114 12.989307,0 23.598114,-10.608806 23.598114,-23.598114 0,-12.989308 -10.608807,-23.5981156 -23.598114,-23.5981156 z m 0,7.3576516 c 9.013209,0 16.240462,7.227255 16.240462,16.240464 0,3.015434 -0.82325,5.821387 -2.237461,8.233362 L 22.059446,16.289856 c 2.411975,-1.414211 5.217928,-2.237462 8.233362,-2.237462 z M 16.289807,22.059495 38.52617,44.295859 c -2.411976,1.414211 -5.217929,2.237461 -8.233362,2.237461 -9.01321,0 -16.240464,-7.227255 -16.240464,-16.240462 0,-3.015434 0.823252,-5.821387 2.237463,-8.233363 z"
       id="rect4089" />
  </g>
</svg>
