<svg width="32" height="32" viewBox="0 0 32 32" fill="none" xmlns="http://www.w3.org/2000/svg">
<path fill-rule="evenodd" clip-rule="evenodd" d="M10.8976 3.6816C12.5152 3.01153 14.249 2.66666 16 2.66666C17.751 2.66666 19.4848 3.01153 21.1024 3.6816C22.7201 4.35166 24.19 5.33378 25.4281 6.5719C26.6662 7.81001 27.6483 9.27987 28.3184 10.8975C28.9885 12.5152 29.3333 14.249 29.3333 16C29.3333 19.5362 27.9286 22.9276 25.4281 25.4281C22.9276 27.9286 19.5362 29.3333 16 29.3333C14.249 29.3333 12.5152 28.9884 10.8976 28.3184C9.27988 27.6483 7.81002 26.6662 6.57191 25.4281C4.07142 22.9276 2.66666 19.5362 2.66666 16C2.66666 12.4638 4.07142 9.07238 6.57191 6.5719C7.81002 5.33378 9.27988 4.35166 10.8976 3.6816ZM5.33333 16C5.33333 21.88 10.12 26.6667 16 26.6667C18.4607 26.6667 20.7299 25.8284 22.5369 24.4225L7.57746 9.46308C6.1716 11.2701 5.33333 13.5393 5.33333 16ZM24.4225 22.5369C25.8284 20.7299 26.6667 18.4607 26.6667 16C26.6667 10.12 21.88 5.33332 16 5.33332C13.5393 5.33332 11.2701 6.1716 9.46308 7.57746L24.4225 22.5369Z" fill="white"/>
</svg>
