<svg width="32" height="32" viewBox="0 0 32 32" fill="none" xmlns="http://www.w3.org/2000/svg">
<path d="M16 26.6667C18.829 26.6667 21.5421 25.5429 23.5425 23.5425C25.5429 21.5421 26.6667 18.829 26.6667 16C26.6667 13.171 25.5429 10.4579 23.5425 8.45755C21.5421 6.45716 18.829 5.33335 16 5.33335C13.171 5.33335 10.4579 6.45716 8.45755 8.45755C6.45716 10.4579 5.33335 13.171 5.33335 16C5.33335 18.829 6.45716 21.5421 8.45755 23.5425C10.4579 25.5429 13.171 26.6667 16 26.6667ZM16 2.66669C17.751 2.66669 19.4848 3.01156 21.1025 3.68163C22.7201 4.35169 24.19 5.33382 25.4281 6.57193C26.6662 7.81004 27.6484 9.2799 28.3184 10.8976C28.9885 12.5152 29.3334 14.2491 29.3334 16C29.3334 19.5362 27.9286 22.9276 25.4281 25.4281C22.9276 27.9286 19.5362 29.3334 16 29.3334C8.62669 29.3334 2.66669 23.3334 2.66669 16C2.66669 12.4638 4.07144 9.07242 6.57193 6.57193C9.07242 4.07144 12.4638 2.66669 16 2.66669V2.66669ZM16.6667 9.33335V16.3334L22.6667 19.8934L21.6667 21.5334L14.6667 17.3334V9.33335H16.6667Z" fill="white"/>
</svg>
