<?xml version="1.0" encoding="UTF-8" standalone="no"?>
<!-- Created with Inkscape (http://www.inkscape.org/) -->

<svg
   xmlns:dc="http://purl.org/dc/elements/1.1/"
   xmlns:cc="http://creativecommons.org/ns#"
   xmlns:rdf="http://www.w3.org/1999/02/22-rdf-syntax-ns#"
   xmlns:svg="http://www.w3.org/2000/svg"
   xmlns="http://www.w3.org/2000/svg"
   xmlns:sodipodi="http://sodipodi.sourceforge.net/DTD/sodipodi-0.dtd"
   xmlns:inkscape="http://www.inkscape.org/namespaces/inkscape"
   width="5.291666mm"
   height="5.291666mm"
   viewBox="0 0 5.291666 5.291666"
   version="1.1"
   id="svg823"
   inkscape:version="0.92.5 (2060ec1f9f, 2020-04-08)"
   sodipodi:docname="clock.svg">
  <defs
     id="defs817" />
  <sodipodi:namedview
     id="base"
     pagecolor="#ffffff"
     bordercolor="#666666"
     borderopacity="1.0"
     inkscape:pageopacity="0.0"
     inkscape:pageshadow="2"
     inkscape:zoom="3.959798"
     inkscape:cx="26.198206"
     inkscape:cy="0.53165806"
     inkscape:document-units="mm"
     inkscape:current-layer="layer1"
     showgrid="false"
     inkscape:window-width="1392"
     inkscape:window-height="934"
     inkscape:window-x="1280"
     inkscape:window-y="36"
     inkscape:window-maximized="0" />
  <metadata
     id="metadata820">
    <rdf:RDF>
      <cc:Work
         rdf:about="">
        <dc:format>image/svg+xml</dc:format>
        <dc:type
           rdf:resource="http://purl.org/dc/dcmitype/StillImage" />
        <dc:title></dc:title>
      </cc:Work>
    </rdf:RDF>
  </metadata>
  <g
     inkscape:label="Layer 1"
     inkscape:groupmode="layer"
     id="layer1"
     transform="translate(-41.199405,-60.008929)">
    <path
       inkscape:connector-curvature="0"
       style="fill:#ffffff;fill-opacity:1;stroke-width:0.26458332"
       d="m 43.845238,64.771429 c 1.164167,0 2.116667,-0.9525 2.116667,-2.116667 0,-1.164167 -0.9525,-2.116667 -2.116667,-2.116667 -1.164167,0 -2.116667,0.9525 -2.116667,2.116667 0,1.164167 0.9525,2.116667 2.116667,2.116667 z m 0,-4.7625 c 1.455208,0 2.645833,1.190625 2.645833,2.645833 0,1.455208 -1.190625,2.645833 -2.645833,2.645833 -1.455208,0 -2.645833,-1.190625 -2.645833,-2.645833 0,-1.455208 1.190625,-2.645833 2.645833,-2.645833 z m 1.322917,3.148541 -0.185209,0.343959 -1.402291,-0.767292 v -1.402292 h 0.396875 v 1.164167 z"
       id="path2" />
  </g>
</svg>
