<svg width="32" height="32" viewBox="0 0 32 32" fill="none" xmlns="http://www.w3.org/2000/svg">
<path d="M2.66667 6C2.66667 4.89543 3.5621 4 4.66667 4H27.3333C28.4379 4 29.3333 4.89543 29.3333 6V14.6667H26.6667V6.66667H5.33334V25.3333H13.3333V28H4.66667C3.5621 28 2.66667 27.1046 2.66667 26V6Z" fill="white"/>
<path d="M29.3333 18.3333C29.3333 17.781 28.8856 17.3333 28.3333 17.3333H17C16.4477 17.3333 16 17.7811 16 18.3333V27C16 27.5523 16.4477 28 17 28H28.3333C28.8856 28 29.3333 27.5523 29.3333 27V18.3333Z" fill="white"/>
</svg>
