<?xml version="1.0" encoding="UTF-8" standalone="no"?>
<svg
   xmlns:dc="http://purl.org/dc/elements/1.1/"
   xmlns:cc="http://creativecommons.org/ns#"
   xmlns:rdf="http://www.w3.org/1999/02/22-rdf-syntax-ns#"
   xmlns:svg="http://www.w3.org/2000/svg"
   xmlns="http://www.w3.org/2000/svg"
   width="32"
   height="32"
   id="svg2"
   version="1.1">
  <metadata
     id="metadata11">
    <rdf:RDF>
      <cc:Work
         rdf:about="">
        <dc:format>image/svg+xml</dc:format>
        <dc:type
           rdf:resource="http://purl.org/dc/dcmitype/StillImage" />
        <dc:title></dc:title>
      </cc:Work>
    </rdf:RDF>
  </metadata>
  <defs
     id="defs4" />
  <path
     id="path3391"
     d="M 25.283203 1 C 24.394748 0.9885433 23.507012 1.3133679 22.835938 1.984375 L 17.080078 7.7402344 C 15.737924 9.082248 15.778526 11.288427 17.130859 12.640625 L 18.345703 11.425781 C 17.627838 10.707987 17.62329 9.6266403 18.294922 8.9550781 L 24.050781 3.2011719 C 24.72241 2.5296104 25.803618 2.5341589 26.521484 3.2519531 L 28.75 5.4785156 C 29.467866 6.19631 29.472414 7.2776565 28.800781 7.9492188 L 23.044922 13.705078 C 22.373293 14.37664 21.292085 14.372091 20.574219 13.654297 L 19.359375 14.869141 C 20.711709 16.221341 22.917617 16.261937 24.259766 14.919922 L 30.015625 9.1640625 C 31.357777 7.822049 31.317178 5.6158705 29.964844 4.2636719 L 27.736328 2.0351562 C 27.060161 1.3590568 26.171658 1.0114567 25.283203 1 z M 20.558594 10.080078 C 20.245477 10.109223 19.961085 10.312488 19.761719 10.558594 L 10.638672 19.679688 C 10.406149 19.801637 10.194645 20.670375 10.683594 20.958984 C 10.780034 21.004984 10.663787 20.964687 10.871094 21.117188 C 10.807614 21.138777 11.55002 21.856959 11.962891 21.558594 C 12.376798 21.428292 12.60802 21.024455 12.925781 20.753906 L 21.517578 12.162109 C 21.240813 12.40474 21.96515 11.838141 21.886719 11.626953 C 22.050712 11.205082 21.650392 10.661199 21.394531 10.53125 C 21.717324 10.769095 21.072144 10.114418 20.878906 10.113281 C 20.76983 10.079452 20.662966 10.070363 20.558594 10.080078 z M 10.185547 16.095703 C 9.2970919 16.084243 8.4113087 16.409071 7.7402344 17.080078 L 1.984375 22.835938 C 0.64222627 24.177951 0.68282179 26.38413 2.0351562 27.736328 L 4.2636719 29.964844 C 5.6160063 31.317043 7.8219136 31.357638 9.1640625 30.015625 L 14.919922 24.259766 C 16.262071 22.917752 16.22147 20.711574 14.869141 19.359375 L 13.654297 20.574219 C 14.37216 21.292012 14.376708 22.373361 13.705078 23.044922 L 7.9492188 28.798828 C 7.27759 29.470388 6.196382 29.465842 5.4785156 28.748047 L 3.25 26.521484 C 2.5321337 25.803691 2.5275899 24.722343 3.1992188 24.050781 L 8.9550781 18.294922 C 9.6267069 17.62336 10.707914 17.627909 11.425781 18.345703 L 12.640625 17.130859 C 11.964458 16.454761 11.074002 16.10716 10.185547 16.095703 z "
     style="color:#000000;font-style:normal;font-variant:normal;font-weight:normal;font-stretch:normal;font-size:medium;line-height:normal;font-family:sans-serif;font-variant-ligatures:normal;font-variant-position:normal;font-variant-caps:normal;font-variant-numeric:normal;font-variant-alternates:normal;font-feature-settings:normal;text-indent:0;text-align:start;text-decoration:none;text-decoration-line:none;text-decoration-style:solid;text-decoration-color:#000000;letter-spacing:normal;word-spacing:normal;text-transform:none;writing-mode:lr-tb;direction:ltr;text-orientation:mixed;dominant-baseline:auto;baseline-shift:baseline;text-anchor:start;white-space:normal;shape-padding:0;clip-rule:nonzero;display:inline;overflow:visible;visibility:visible;opacity:1;isolation:auto;mix-blend-mode:normal;color-interpolation:sRGB;color-interpolation-filters:linearRGB;solid-color:#000000;solid-opacity:1;vector-effect:none;fill:#f6f5f0;fill-opacity:1;fill-rule:nonzero;stroke:none;stroke-width:1.71858025;stroke-linecap:butt;stroke-linejoin:miter;stroke-miterlimit:4;stroke-dasharray:none;stroke-dashoffset:0;stroke-opacity:1;color-rendering:auto;image-rendering:auto;shape-rendering:auto;text-rendering:auto;enable-background:accumulate" />
</svg>
