<svg width="32" height="32" viewBox="0 0 32 32" fill="none" xmlns="http://www.w3.org/2000/svg">
<path d="M28.7806 1.33459L30.6662 3.22021L24.4847 9.40171L26.3703 11.2873C26.891 11.808 26.891 12.6522 26.3703 13.1729L22.6002 16.943C23.1209 17.4637 23.1209 18.308 22.6002 18.8287C22.0795 19.3494 21.2353 19.3494 20.7146 18.8287L13.1721 11.2862C12.6514 10.7655 12.6514 9.92126 13.1721 9.40056C13.6928 8.87986 14.5371 8.87986 15.0578 9.40056L18.8279 5.63047C19.3486 5.10977 20.1928 5.10977 20.7135 5.63047L22.5991 7.51609L28.7806 1.33459Z" fill="white"/>
<path d="M16.942 22.6013C17.4629 23.1193 18.305 23.1183 18.8248 22.5986C19.3455 22.0779 19.3455 21.2336 18.8248 20.7129L11.2823 13.1705C10.7616 12.6498 9.91743 12.6498 9.39673 13.1705C8.87603 13.6912 8.87603 14.5354 9.39673 15.0561L9.39949 15.0588L5.62853 18.8298C5.10783 19.3505 5.10783 20.1947 5.62853 20.7154L7.51414 22.601L1.34045 28.7747L3.22607 30.6603L9.39976 24.4866L11.2854 26.3723C11.8061 26.893 12.6503 26.893 13.171 26.3723L16.942 22.6013Z" fill="white"/>
</svg>
