<svg width="32" height="32" viewBox="0 0 32 32" fill="none" xmlns="http://www.w3.org/2000/svg">
<path d="M28.7707 1.34366L30.6563 3.22928L26.3709 7.51473L28.2565 9.40035C28.7772 9.92105 28.7772 10.7653 28.2565 11.286L24.4853 15.0572C25.006 15.5779 25.006 16.4221 24.4853 16.9428C23.9646 17.4635 23.1203 17.4635 22.5997 16.9428L15.0572 9.40035C14.5365 8.87965 14.5365 8.03543 15.0572 7.51473C15.5779 6.99403 16.4221 6.99403 16.9428 7.51473L20.714 3.74349C21.2347 3.22279 22.079 3.22279 22.5997 3.74349L24.4853 5.62911L28.7707 1.34366Z" fill="white"/>
<path d="M15.0469 25.0376C15.5676 25.5583 16.4118 25.5583 16.9325 25.0376C17.4532 24.5169 17.4532 23.6727 16.9325 23.152L9.39003 15.6095C8.86933 15.0888 8.02511 15.0888 7.50441 15.6095C6.98372 16.1302 6.98372 16.9744 7.50441 17.4951L3.73318 21.2664C3.21248 21.7871 3.21248 22.6313 3.73318 23.152L5.6188 25.0376L1.33334 29.3231L3.21895 31.2087L7.50441 26.9232L9.39003 28.8088C9.91073 29.3295 10.7549 29.3295 11.2756 28.8088L15.0469 25.0376Z" fill="white"/>
</svg>
