<?xml version="1.0" encoding="UTF-8" standalone="no"?>
<svg
   xmlns:dc="http://purl.org/dc/elements/1.1/"
   xmlns:cc="http://creativecommons.org/ns#"
   xmlns:rdf="http://www.w3.org/1999/02/22-rdf-syntax-ns#"
   xmlns:svg="http://www.w3.org/2000/svg"
   xmlns="http://www.w3.org/2000/svg"
   version="1.1"
   id="svg2"
   height="32"
   width="32">
  <g
     transform="matrix(0.97804983,0,0,0.9810295,0.28496226,0.40907011)"
     id="g1025">
    <path
       style="opacity:1;fill:#ffffff;fill-opacity:1;stroke:none;stroke-width:2.57851052;stroke-linecap:square;stroke-linejoin:round;stroke-miterlimit:4;stroke-dasharray:none;paint-order:fill markers stroke"
       d="m 14.508424,12.670764 c -0.230616,0.01059 -0.465563,0.110095 -0.65039,0.294922 l -3.34375,3.341797 -1.3105464,-1.310547 c -0.532472,-0.532472 -1.3907791,-0.533053 -1.9238281,0 -0.53305,0.533051 -0.532465,1.391355 0,1.923828 l 0.00391,0.0039 -3.2597657,3.259766 c -1.080237,1.080252 -1.086927,2.809551 -0.015625,3.880859 l 1.03125,1.03125 -4.30859363,4.109375 1.97656243,1.976563 4.3300781,-4.087891 1.0722656,1.074219 c 1.07131,1.071318 2.8006197,1.064621 3.8808587,-0.01563 l 3.259766,-3.259766 0.0039,0.0039 c 0.532472,0.532472 1.390782,0.531074 1.923828,-0.002 0.53305,-0.533048 0.532467,-1.391348 0,-1.923828 l -5.447266,-5.447265 3.34375,-3.341797 c 0.369654,-0.369654 0.395779,-0.938206 0.05859,-1.275391 -0.168592,-0.168592 -0.394384,-0.246922 -0.625,-0.236328 z"
       id="rect824" />
    <path
       style="opacity:1;fill:#ffffff;fill-opacity:1;stroke:none;stroke-width:2.57851052;stroke-linecap:square;stroke-linejoin:round;stroke-miterlimit:4;stroke-dasharray:none;paint-order:fill markers stroke"
       d="m 17.627014,19.11407 c 0.230616,-0.01059 0.465563,-0.110095 0.65039,-0.294922 l 3.34375,-3.341797 1.310547,1.310547 c 0.532472,0.532472 1.390779,0.533053 1.923828,0 0.53305,-0.533051 0.532465,-1.391355 0,-1.923828 l -0.0039,-0.0039 3.259766,-3.259766 c 1.080237,-1.080252 1.086927,-2.8095509 0.01563,-3.8808589 l -1.03125,-1.03125 4.308594,-4.109375 -1.976563,-1.97656312 -4.330078,4.08789112 -1.072266,-1.074219 c -1.07131,-1.071318 -2.80062,-1.064621 -3.880858,0.01563 l -3.259766,3.259766 -0.0039,-0.0039 c -0.532472,-0.532472 -1.390782,-0.531074 -1.923828,0.002 -0.53305,0.533048 -0.532467,1.391348 0,1.923828 l 5.447266,5.4472649 -3.34375,3.341797 c -0.369654,0.369654 -0.395779,0.938206 -0.05859,1.275391 0.168592,0.168592 0.394384,0.246922 0.625,0.236328 z"
       id="rect824-9" />
  </g>
</svg>
