<?xml version="1.0" encoding="UTF-8" standalone="no"?>
<svg
   xmlns:dc="http://purl.org/dc/elements/1.1/"
   xmlns:cc="http://creativecommons.org/ns#"
   xmlns:rdf="http://www.w3.org/1999/02/22-rdf-syntax-ns#"
   xmlns:svg="http://www.w3.org/2000/svg"
   xmlns="http://www.w3.org/2000/svg"
   width="32"
   height="32"
   id="svg2"
   version="1.1">
  <metadata
     id="metadata11">
    <rdf:RDF>
      <cc:Work
         rdf:about="">
        <dc:format>image/svg+xml</dc:format>
        <dc:type
           rdf:resource="http://purl.org/dc/dcmitype/StillImage" />
        <dc:title></dc:title>
      </cc:Work>
    </rdf:RDF>
  </metadata>
  <defs
     id="defs4" />
  <path
     id="path3391"
     d="M 30.044594,4.4098454 C 29.424463,3.7735117 28.567053,3.3754733 27.618058,3.375426 l -8.140015,-5e-7 c -1.897993,-9.92e-5 -3.429288,1.5886141 -3.429192,3.5010063 l 1.718049,0 c -5.1e-5,-1.0151642 0.761362,-1.783007 1.711144,-1.7829576 l 8.138633,0.00138 c 0.949779,4.78e-5 1.711092,0.7677934 1.711143,1.7829585 l 0.0014,3.1502165 c 5.1e-5,1.015165 -0.761362,1.783008 -1.711144,1.782958 l -8.140014,0 c -0.94978,-4.8e-5 -1.711093,-0.767793 -1.711144,-1.782958 l -1.718049,0 c 9.5e-5,1.912394 1.531202,3.500912 3.429193,3.501007 l 8.140015,0 c 1.897991,9.8e-5 3.429287,-1.588614 3.429192,-3.501007 l -10e-7,-3.1515973 C 31.047202,5.9202359 30.664726,5.0461791 30.044594,4.4098454 Z"
     style="color:#000000;font-style:normal;font-variant:normal;font-weight:normal;font-stretch:normal;font-size:medium;line-height:normal;font-family:sans-serif;font-variant-ligatures:normal;font-variant-position:normal;font-variant-caps:normal;font-variant-numeric:normal;font-variant-alternates:normal;font-feature-settings:normal;text-indent:0;text-align:start;text-decoration:none;text-decoration-line:none;text-decoration-style:solid;text-decoration-color:#000000;letter-spacing:normal;word-spacing:normal;text-transform:none;writing-mode:lr-tb;direction:ltr;text-orientation:mixed;dominant-baseline:auto;baseline-shift:baseline;text-anchor:start;white-space:normal;shape-padding:0;clip-rule:nonzero;display:inline;overflow:visible;visibility:visible;opacity:1;isolation:auto;mix-blend-mode:normal;color-interpolation:sRGB;color-interpolation-filters:linearRGB;solid-color:#000000;solid-opacity:1;vector-effect:none;fill:#f6f5f0;fill-opacity:1;fill-rule:nonzero;stroke:none;stroke-width:1.71858025;stroke-linecap:butt;stroke-linejoin:miter;stroke-miterlimit:4;stroke-dasharray:none;stroke-dashoffset:0;stroke-opacity:1;color-rendering:auto;image-rendering:auto;shape-rendering:auto;text-rendering:auto;enable-background:accumulate" />
  <path
     id="path3391-7"
     d="m 10.185547,16.095703 c -0.888455,-0.01146 -1.7742383,0.313368 -2.4453126,0.984375 l -5.7558594,5.75586 c -1.34214873,1.342014 -1.30155346,3.548192 0.050781,4.90039 l 2.2285157,2.228516 c 1.3523344,1.352199 3.5582417,1.392793 4.9003906,0.05078 l 5.7558595,-5.755859 c 1.342149,-1.342014 1.301549,-3.548192 -0.05078,-4.900391 l -1.214844,1.214844 c 0.717863,0.717793 0.72241,1.799142 0.05078,2.470703 L 7.9492188,28.798828 C 7.27759,29.470388 6.196382,29.465842 5.4785156,28.748047 L 3.25,26.521484 C 2.5321337,25.803691 2.5275899,24.722343 3.1992188,24.050781 l 5.7558593,-5.755859 c 0.6716288,-0.671562 1.7528359,-0.667014 2.4707029,0.05078 l 1.214844,-1.214844 C 11.964458,16.45476 11.074002,16.10716 10.185547,16.095703 Z"
     style="color:#000000;font-style:normal;font-variant:normal;font-weight:normal;font-stretch:normal;font-size:medium;line-height:normal;font-family:sans-serif;font-variant-ligatures:normal;font-variant-position:normal;font-variant-caps:normal;font-variant-numeric:normal;font-variant-alternates:normal;font-feature-settings:normal;text-indent:0;text-align:start;text-decoration:none;text-decoration-line:none;text-decoration-style:solid;text-decoration-color:#000000;letter-spacing:normal;word-spacing:normal;text-transform:none;writing-mode:lr-tb;direction:ltr;text-orientation:mixed;dominant-baseline:auto;baseline-shift:baseline;text-anchor:start;white-space:normal;shape-padding:0;clip-rule:nonzero;display:inline;overflow:visible;visibility:visible;opacity:1;isolation:auto;mix-blend-mode:normal;color-interpolation:sRGB;color-interpolation-filters:linearRGB;solid-color:#000000;solid-opacity:1;vector-effect:none;fill:#f6f5f0;fill-opacity:1;fill-rule:nonzero;stroke:none;stroke-width:1.71858025;stroke-linecap:butt;stroke-linejoin:miter;stroke-miterlimit:4;stroke-dasharray:none;stroke-dashoffset:0;stroke-opacity:1;color-rendering:auto;image-rendering:auto;shape-rendering:auto;text-rendering:auto;enable-background:accumulate" />
  <g
     style="fill:none;stroke:#f6f5f0"
     id="g3421"
     transform="rotate(135,24.156996,23.964677)">
    <path
       id="path3482"
       d="m 25.9375,41.472656 -1.339844,1.201172 3.802735,4.244141 1.339843,-1.201172 z m -5.855469,0.738282 -2.5625,5.263671 1.619141,0.789063 2.560547,-5.265625 z m 3.994141,0.77539 -1.785156,0.21875 1.005859,8.207031 1.785156,-0.21875 z"
       style="color:#000000;font-style:normal;font-variant:normal;font-weight:normal;font-stretch:normal;font-size:medium;line-height:normal;font-family:sans-serif;font-variant-ligatures:normal;font-variant-position:normal;font-variant-caps:normal;font-variant-numeric:normal;font-variant-alternates:normal;font-feature-settings:normal;text-indent:0;text-align:start;text-decoration:none;text-decoration-line:none;text-decoration-style:solid;text-decoration-color:#000000;letter-spacing:normal;word-spacing:normal;text-transform:none;writing-mode:lr-tb;direction:ltr;text-orientation:mixed;dominant-baseline:auto;baseline-shift:baseline;text-anchor:start;white-space:normal;shape-padding:0;clip-rule:nonzero;display:inline;overflow:visible;visibility:visible;opacity:1;isolation:auto;mix-blend-mode:normal;color-interpolation:sRGB;color-interpolation-filters:linearRGB;solid-color:#000000;solid-opacity:1;vector-effect:none;fill:#f6f5f0;fill-opacity:1;fill-rule:evenodd;stroke:none;stroke-width:1.79999995;stroke-linecap:butt;stroke-linejoin:miter;stroke-miterlimit:4;stroke-dasharray:none;stroke-dashoffset:0;stroke-opacity:1;color-rendering:auto;image-rendering:auto;shape-rendering:auto;text-rendering:auto;enable-background:accumulate" />
  </g>
</svg>
