<?xml version="1.0" encoding="UTF-8" standalone="no"?>
<svg
   xmlns:dc="http://purl.org/dc/elements/1.1/"
   xmlns:cc="http://creativecommons.org/ns#"
   xmlns:rdf="http://www.w3.org/1999/02/22-rdf-syntax-ns#"
   xmlns:svg="http://www.w3.org/2000/svg"
   xmlns="http://www.w3.org/2000/svg"
   id="svg8"
   version="1.1"
   height="32"
   width="32">
  <path
     id="rect4133-6-3"
     d="m 16.001478,1 c -1.743612,0 -3.149334,1.4027677 -3.149334,3.1463775 0,1.7436097 1.405722,3.1463775 3.149334,3.1463775 1.743613,0 3.146378,-1.4027678 3.146378,-3.1463775 C 19.147856,2.4027677 17.745091,1 16.001478,1 Z m 0,11.840315 c -1.743612,0 -3.149334,1.405725 -3.149334,3.149334 0,1.743611 1.405722,3.146378 3.149334,3.146378 1.743613,0 3.146378,-1.402767 3.146378,-3.146378 0,-1.743609 -1.402765,-3.149334 -3.146378,-3.149334 z m 0,11.86693 c -1.743612,0 -3.149334,1.402767 -3.149334,3.146377 0,1.74361 1.405722,3.146378 3.149334,3.146378 1.743613,0 3.146378,-1.402768 3.146378,-3.146378 0,-1.74361 -1.402765,-3.146377 -3.146378,-3.146377 z"
     style="opacity:1;fill:#ffffff;stroke-width:1.61869895" />
</svg>
