<svg width="32" height="32" viewBox="0 0 32 32" fill="none" xmlns="http://www.w3.org/2000/svg">
<path d="M16 21.3333C16.7072 21.3333 17.3855 21.6143 17.8856 22.1144C18.3857 22.6145 18.6667 23.2928 18.6667 24C18.6667 24.7073 18.3857 25.3855 17.8856 25.8856C17.3855 26.3857 16.7072 26.6667 16 26.6667C15.2928 26.6667 14.6145 26.3857 14.1144 25.8856C13.6143 25.3855 13.3333 24.7073 13.3333 24C13.3333 23.2928 13.6143 22.6145 14.1144 22.1144C14.6145 21.6143 15.2928 21.3333 16 21.3333ZM16 13.3333C16.7072 13.3333 17.3855 13.6143 17.8856 14.1144C18.3857 14.6145 18.6667 15.2928 18.6667 16C18.6667 16.7073 18.3857 17.3855 17.8856 17.8856C17.3855 18.3857 16.7072 18.6667 16 18.6667C15.2928 18.6667 14.6145 18.3857 14.1144 17.8856C13.6143 17.3855 13.3333 16.7073 13.3333 16C13.3333 15.2928 13.6143 14.6145 14.1144 14.1144C14.6145 13.6143 15.2928 13.3333 16 13.3333V13.3333ZM16 5.33334C16.7072 5.33334 17.3855 5.61429 17.8856 6.11439C18.3857 6.61449 18.6667 7.29277 18.6667 8.00001C18.6667 8.70725 18.3857 9.38553 17.8856 9.88563C17.3855 10.3857 16.7072 10.6667 16 10.6667C15.2928 10.6667 14.6145 10.3857 14.1144 9.88563C13.6143 9.38553 13.3333 8.70725 13.3333 8.00001C13.3333 7.29277 13.6143 6.61449 14.1144 6.11439C14.6145 5.61429 15.2928 5.33334 16 5.33334Z" fill="white"/>
</svg>
