<svg width="32" height="32" viewBox="0 0 32 32" fill="none" xmlns="http://www.w3.org/2000/svg">
<path d="M29.3333 4H9.33333C8.41333 4 7.69333 4.46667 7.21333 5.17333L0 16L7.21333 26.8133C7.69333 27.52 8.41333 28 9.33333 28H29.3333C30.0406 28 30.7189 27.719 31.219 27.219C31.719 26.7189 32 26.0406 32 25.3333V6.66667C32 5.95942 31.719 5.28115 31.219 4.78105C30.7189 4.28095 30.0406 4 29.3333 4ZM25.3333 20.7867L23.4533 22.6667L18.6667 17.88L13.88 22.6667L12 20.7867L16.7867 16L12 11.2133L13.88 9.33333L18.6667 14.12L23.4533 9.33333L25.3333 11.2133L20.5467 16" fill="white"/>
</svg>
