<svg width="32" height="32" viewBox="0 0 32 32" fill="none" xmlns="http://www.w3.org/2000/svg">
<path d="M32 16L26.6667 10.6667V14.6667H14.6667V17.3333H26.6667V21.3333L32 16ZM0 24V8.00001C0 7.29277 0.280952 6.61449 0.781049 6.11439C1.28115 5.61429 1.95942 5.33334 2.66667 5.33334H21.3333C22.0406 5.33334 22.7189 5.61429 23.219 6.11439C23.719 6.61449 24 7.29277 24 8.00001V12H21.3333V8.00001H2.66667V24H21.3333V20H24V24C24 24.7073 23.719 25.3855 23.219 25.8856C22.7189 26.3857 22.0406 26.6667 21.3333 26.6667H2.66667C1.95942 26.6667 1.28115 26.3857 0.781049 25.8856C0.280952 25.3855 0 24.7073 0 24Z" fill="white"/>
</svg>
