<?xml version="1.0" encoding="UTF-8" standalone="no"?>
<svg
   xmlns:dc="http://purl.org/dc/elements/1.1/"
   xmlns:cc="http://creativecommons.org/ns#"
   xmlns:rdf="http://www.w3.org/1999/02/22-rdf-syntax-ns#"
   xmlns:svg="http://www.w3.org/2000/svg"
   xmlns="http://www.w3.org/2000/svg"
   height="32"
   version="1.1"
   width="32"
   id="svg2">
  <path
     style="fill:#ffffff;fill-opacity:1;fill-rule:nonzero;stroke:none;"
     d="m 19.747252,1 c -6.193232,3e-7 -11.2527465,4.9498193 -11.2527465,11.008779 0,2.285772 0.7239263,4.412461 1.9532965,6.176314 L 0.99999985,28.202115 4.098901,31 13.434065,21.1093 c 1.802675,1.202161 3.97735,1.908259 6.313187,1.90826 C 25.940487,23.01756 31.000001,18.06774 31,12.008779 31,5.9498193 25.940487,0.99999986 19.747252,1 Z m 0,3.5504383 c 4.232476,0 7.626374,3.3176306 7.626375,7.4583407 0,4.140712 -3.393899,7.461028 -7.626375,7.461028 -4.232473,0 -7.623626,-3.320316 -7.623626,-7.461028 0,-4.1407101 3.391154,-7.4583393 7.623626,-7.4583407 z"
     id="path4134" />
</svg>
