<svg width="32" height="32" viewBox="0 0 32 32" fill="none" xmlns="http://www.w3.org/2000/svg">
<path fill-rule="evenodd" clip-rule="evenodd" d="M13.3333 2.66666C7.4423 2.66666 2.66667 7.44229 2.66667 13.3333C2.66667 19.2244 7.4423 24 13.3333 24C15.7983 24 18.0679 23.1639 19.8742 21.7598L27.5425 29.4281L29.4281 27.5425L21.7598 19.8742C23.1639 18.0679 24 15.7983 24 13.3333C24 7.44229 19.2244 2.66666 13.3333 2.66666ZM5.33333 13.3333C5.33333 8.91505 8.91506 5.33332 13.3333 5.33332C17.7516 5.33332 21.3333 8.91505 21.3333 13.3333C21.3333 17.7516 17.7516 21.3333 13.3333 21.3333C8.91506 21.3333 5.33333 17.7516 5.33333 13.3333Z" fill="white"/>
</svg>
