<svg width="32" height="32" viewBox="0 0 32 32" fill="none" xmlns="http://www.w3.org/2000/svg">
<path d="M26.6666 24H5.33329V10.6667H26.6666V24ZM26.6666 8.00001H16L13.3333 5.33334H5.33329C3.85329 5.33334 2.66663 6.52001 2.66663 8.00001V24C2.66663 24.7073 2.94758 25.3855 3.44767 25.8856C3.94777 26.3857 4.62605 26.6667 5.33329 26.6667H26.6666C27.3739 26.6667 28.0521 26.3857 28.5522 25.8856C29.0523 25.3855 29.3333 24.7073 29.3333 24V10.6667C29.3333 9.95943 29.0523 9.28116 28.5522 8.78106C28.0521 8.28096 27.3739 8.00001 26.6666 8.00001V8.00001Z" fill="white"/>
</svg>
