<svg width="32" height="32" viewBox="0 0 32 32" fill="none" xmlns="http://www.w3.org/2000/svg">
<path d="M18.6666 16L13.3333 10.6667V14.6667H2.66663V17.3333H13.3333V21.3333L18.6666 16ZM29.3333 24V8.00001C29.3333 7.29277 29.0523 6.61449 28.5522 6.11439C28.0521 5.61429 27.3739 5.33334 26.6666 5.33334H7.99996C7.29272 5.33334 6.61444 5.61429 6.11434 6.11439C5.61424 6.61449 5.33329 7.29277 5.33329 8.00001V12H7.99996V8.00001H26.6666V24H7.99996V20H5.33329V24C5.33329 24.7073 5.61424 25.3855 6.11434 25.8856C6.61444 26.3857 7.29272 26.6667 7.99996 26.6667H26.6666C27.3739 26.6667 28.0521 26.3857 28.5522 25.8856C29.0523 25.3855 29.3333 24.7073 29.3333 24Z" fill="white"/>
</svg>
