<svg width="24" height="24" viewBox="0 0 24 24" fill="none" xmlns="http://www.w3.org/2000/svg">
<path d="M9.21982 11.4697L13.1573 7.53215C13.298 7.3915 13.4888 7.31249 13.6877 7.3125C13.8866 7.31251 14.0774 7.39154 14.218 7.5322C14.3587 7.67286 14.4377 7.86363 14.4377 8.06255C14.4376 8.26147 14.3586 8.45223 14.218 8.59288L11.5608 11.25H20.2529C20.4518 11.25 20.6426 11.329 20.7833 11.4697C20.9239 11.6103 21.0029 11.8011 21.0029 12C21.0029 12.1989 20.9239 12.3897 20.7833 12.5303C20.6426 12.671 20.4518 12.75 20.2529 12.75H11.5608L14.218 15.4072C14.2876 15.4768 14.3429 15.5595 14.3805 15.6505C14.4182 15.7415 14.4377 15.839 14.4377 15.9375C14.4377 16.1364 14.3587 16.3272 14.218 16.4678C14.0774 16.6085 13.8866 16.6875 13.6877 16.6875C13.4888 16.6875 13.298 16.6085 13.1573 16.4679L9.21982 12.5304C9.07917 12.3897 9.00016 12.1989 9.00016 12C9.00016 11.8011 9.07917 11.6103 9.21982 11.4697Z" fill="white"/>
<path d="M11.25 19.5H4.5V4.5H11.25C11.4489 4.5 11.6397 4.42098 11.7803 4.28033C11.921 4.13968 12 3.94891 12 3.75C12 3.55109 11.921 3.36032 11.7803 3.21967C11.6397 3.07902 11.4489 3 11.25 3H4.5C4.10231 3.00045 3.72105 3.15864 3.43984 3.43984C3.15864 3.72105 3.00045 4.10231 3 4.5V19.5C3.00045 19.8977 3.15864 20.279 3.43984 20.5602C3.72105 20.8414 4.10231 20.9995 4.5 21H11.25C11.4489 21 11.6397 20.921 11.7803 20.7803C11.921 20.6397 12 20.4489 12 20.25C12 20.0511 11.921 19.8603 11.7803 19.7197C11.6397 19.579 11.4489 19.5 11.25 19.5Z" fill="white"/>
</svg>
