<svg width="32" height="32" viewBox="0 0 32 32" fill="none" xmlns="http://www.w3.org/2000/svg">
<path d="M10.6653 15.9986L15.9986 21.332L21.332 15.9986L17.332 15.9986L17.332 2.66528L14.6653 2.66528L14.6653 15.9986L10.6653 15.9986Z" fill="white"/>
<path d="M28 17.3333C28.0043 15.7567 27.6958 14.1949 27.0923 12.7383C26.4887 11.2818 25.6022 9.95946 24.484 8.84799L22.5986 10.7333C24.3613 12.496 25.3333 14.84 25.3333 17.3333C25.3333 19.8267 24.3613 22.1707 22.5986 23.9333C20.836 25.696 18.492 26.668 15.9986 26.668C13.5053 26.668 11.1613 25.696 9.39863 23.9333C7.63597 22.1707 6.66397 19.8267 6.66397 17.3333C6.66397 14.84 7.63597 12.496 9.39863 10.7333L7.5133 8.84799C5.24663 11.1133 3.9973 14.1267 3.9973 17.3333C3.9973 20.54 5.24663 23.5533 7.5133 25.8187C9.77863 28.0853 12.792 29.3347 15.9986 29.3347C19.2053 29.3347 22.2186 28.0853 24.484 25.8187C25.6022 24.7072 26.4887 23.3849 27.0923 21.9283C27.6958 20.4718 28.0043 18.91 28 17.3333Z" fill="white"/>
</svg>
