<svg width="32" height="32" viewBox="0 0 32 32" fill="none" xmlns="http://www.w3.org/2000/svg">
<path d="M14.6667 12H17.3333V9.33332H14.6667V12ZM16 26.6667C10.12 26.6667 5.33334 21.88 5.33334 16C5.33334 10.12 10.12 5.33332 16 5.33332C21.88 5.33332 26.6667 10.12 26.6667 16C26.6667 21.88 21.88 26.6667 16 26.6667ZM16 2.66666C14.249 2.66666 12.5152 3.01153 10.8976 3.6816C9.27988 4.35166 7.81003 5.33379 6.57191 6.5719C4.07143 9.07238 2.66667 12.4638 2.66667 16C2.66667 19.5362 4.07143 22.9276 6.57191 25.4281C7.81003 26.6662 9.27988 27.6483 10.8976 28.3184C12.5152 28.9884 14.249 29.3333 16 29.3333C19.5362 29.3333 22.9276 27.9286 25.4281 25.4281C27.9286 22.9276 29.3333 19.5362 29.3333 16C29.3333 14.249 28.9885 12.5152 28.3184 10.8975C27.6483 9.27987 26.6662 7.81001 25.4281 6.5719C24.19 5.33379 22.7201 4.35166 21.1025 3.6816C19.4848 3.01153 17.751 2.66666 16 2.66666V2.66666ZM14.6667 22.6667H17.3333V14.6667H14.6667V22.6667Z" fill="white"/>
</svg>
