<svg width="32" height="32" viewBox="0 0 32 32" fill="none" xmlns="http://www.w3.org/2000/svg">
<path d="M10.6667 16C10.6667 16.7073 10.3857 17.3855 9.88564 17.8856C9.38554 18.3857 8.70727 18.6667 8.00002 18.6667C7.29278 18.6667 6.6145 18.3857 6.1144 17.8856C5.61431 17.3855 5.33335 16.7073 5.33335 16C5.33335 15.2928 5.61431 14.6145 6.1144 14.1144C6.6145 13.6143 7.29278 13.3333 8.00002 13.3333C8.70727 13.3333 9.38554 13.6143 9.88564 14.1144C10.3857 14.6145 10.6667 15.2928 10.6667 16ZM18.6667 16C18.6667 16.7073 18.3857 17.3855 17.8856 17.8856C17.3855 18.3857 16.7073 18.6667 16 18.6667C15.2928 18.6667 14.6145 18.3857 14.1144 17.8856C13.6143 17.3855 13.3334 16.7073 13.3334 16C13.3334 15.2928 13.6143 14.6145 14.1144 14.1144C14.6145 13.6143 15.2928 13.3333 16 13.3333C16.7073 13.3333 17.3855 13.6143 17.8856 14.1144C18.3857 14.6145 18.6667 15.2928 18.6667 16V16ZM26.6667 16C26.6667 16.7073 26.3857 17.3855 25.8856 17.8856C25.3855 18.3857 24.7073 18.6667 24 18.6667C23.2928 18.6667 22.6145 18.3857 22.1144 17.8856C21.6143 17.3855 21.3334 16.7073 21.3334 16C21.3334 15.2928 21.6143 14.6145 22.1144 14.1144C22.6145 13.6143 23.2928 13.3333 24 13.3333C24.7073 13.3333 25.3855 13.6143 25.8856 14.1144C26.3857 14.6145 26.6667 15.2928 26.6667 16Z" fill="white"/>
</svg>
