<svg width="32" height="32" viewBox="0 0 32 32" fill="none" xmlns="http://www.w3.org/2000/svg">
<path d="M9.33333 22.6667L13.6 13.6L22.6667 9.33335L18.4 18.4L9.33333 22.6667ZM16 14.8C15.6817 14.8 15.3765 14.9264 15.1515 15.1515C14.9264 15.3765 14.8 15.6818 14.8 16C14.8 16.3183 14.9264 16.6235 15.1515 16.8485C15.3765 17.0736 15.6817 17.2 16 17.2C16.3183 17.2 16.6235 17.0736 16.8485 16.8485C17.0736 16.6235 17.2 16.3183 17.2 16C17.2 15.6818 17.0736 15.3765 16.8485 15.1515C16.6235 14.9264 16.3183 14.8 16 14.8ZM16 2.66669C17.751 2.66669 19.4848 3.01156 21.1024 3.68163C22.7201 4.35169 24.19 5.33382 25.4281 6.57193C26.6662 7.81004 27.6483 9.2799 28.3184 10.8976C28.9885 12.5152 29.3333 14.2491 29.3333 16C29.3333 19.5362 27.9286 22.9276 25.4281 25.4281C22.9276 27.9286 19.5362 29.3334 16 29.3334C14.249 29.3334 12.5152 28.9885 10.8976 28.3184C9.27988 27.6484 7.81002 26.6662 6.57191 25.4281C4.07142 22.9276 2.66666 19.5362 2.66666 16C2.66666 12.4638 4.07142 9.07242 6.57191 6.57193C9.07239 4.07144 12.4638 2.66669 16 2.66669V2.66669ZM16 5.33335C13.171 5.33335 10.4579 6.45716 8.45753 8.45755C6.45714 10.4579 5.33333 13.171 5.33333 16C5.33333 18.829 6.45714 21.5421 8.45753 23.5425C10.4579 25.5429 13.171 26.6667 16 26.6667C18.829 26.6667 21.5421 25.5429 23.5425 23.5425C25.5429 21.5421 26.6667 18.829 26.6667 16C26.6667 13.171 25.5429 10.4579 23.5425 8.45755C21.5421 6.45716 18.829 5.33335 16 5.33335V5.33335Z" fill="white"/>
</svg>
