<?xml version="1.0" encoding="UTF-8" standalone="no"?>
<svg
   xmlns:dc="http://purl.org/dc/elements/1.1/"
   xmlns:cc="http://creativecommons.org/ns#"
   xmlns:rdf="http://www.w3.org/1999/02/22-rdf-syntax-ns#"
   xmlns:svg="http://www.w3.org/2000/svg"
   xmlns="http://www.w3.org/2000/svg"
   width="32"
   height="32"
   id="svg2"
   version="1.1">
  <metadata
     id="metadata9">
    <rdf:RDF>
      <cc:Work
         rdf:about="">
        <dc:format>image/svg+xml</dc:format>
        <dc:type
           rdf:resource="http://purl.org/dc/dcmitype/StillImage" />
        <dc:title></dc:title>
      </cc:Work>
    </rdf:RDF>
  </metadata>
  <defs
     id="defs7" />
  <path
     id="path2"
     style="opacity:1;fill:#ffffff;fill-opacity:1;stroke:none;stroke-width:1;stroke-miterlimit:4;stroke-dasharray:none"
     d="m 16,4.6865238 c -1.086589,3.7708333 -2.173177,7.5416662 -3.259766,11.3124992 2.173178,0 4.346355,0 6.519532,0 C 18.173177,12.22819 17.086589,8.4573571 16,4.6865238 Z m 0,2.9980469 c 0.696615,2.7708333 1.393229,5.5416663 2.089844,8.3124993 -1.476563,0.0026 -2.953125,0.0052 -4.429688,0.0078 C 14.440104,13.231437 15.220052,10.458004 16,7.6845707 Z m -3.259766,8.3164053 c 1.086589,3.770833 2.173177,7.541667 3.259766,11.3125 1.086589,-3.770833 2.173177,-7.541667 3.259766,-11.3125 -2.173177,0 -4.346354,0 -6.519532,0 z" />
</svg>
