<svg width="32" height="32" viewBox="0 0 32 32" fill="none" xmlns="http://www.w3.org/2000/svg">
<path d="M21.332 7.99861L15.9987 2.66527L10.6654 7.99861L14.6654 7.99861L14.6654 21.3319L17.332 21.3319L17.332 7.99861L21.332 7.99861Z" fill="white"/>
<path d="M3.99736 17.3334C3.99299 15.7567 4.30151 14.1949 4.90505 12.7384C5.50858 11.2818 6.39514 9.95949 7.51336 8.84802L9.39869 10.7334C7.63603 12.496 6.66403 14.84 6.66403 17.3334C6.66403 19.8267 7.63603 22.1707 9.39869 23.9334C11.1614 25.696 13.5054 26.668 15.9987 26.668C18.492 26.668 20.836 25.696 22.5987 23.9334C24.3614 22.1707 25.3334 19.8267 25.3334 17.3334C25.3334 14.84 24.3614 12.496 22.5987 10.7334L24.484 8.84802C26.7507 11.1134 28 14.1267 28 17.3334C28 20.54 26.7507 23.5534 24.484 25.8187C22.2187 28.0854 19.2054 29.3347 15.9987 29.3347C12.792 29.3347 9.77869 28.0854 7.51336 25.8187C6.39514 24.7072 5.50858 23.3849 4.90505 21.9284C4.30151 20.4718 3.99299 18.91 3.99736 17.3334V17.3334Z" fill="white"/>
</svg>
