<svg width="24" height="24" viewBox="0 0 24 24" fill="none" xmlns="http://www.w3.org/2000/svg">
<path d="M20.7831 11.4697L16.8456 7.53215C16.7049 7.3915 16.5142 7.31249 16.3153 7.3125C16.1163 7.31251 15.9256 7.39154 15.7849 7.5322C15.6443 7.67286 15.5653 7.86363 15.5653 8.06255C15.5653 8.26147 15.6443 8.45223 15.785 8.59288L18.4421 11.25H9.75C9.55109 11.25 9.36032 11.329 9.21967 11.4697C9.07902 11.6103 9 11.8011 9 12C9 12.1989 9.07902 12.3897 9.21967 12.5303C9.36032 12.671 9.55109 12.75 9.75 12.75H18.4421L15.785 15.4072C15.7153 15.4768 15.6601 15.5595 15.6224 15.6505C15.5847 15.7415 15.5653 15.839 15.5653 15.9375C15.5653 16.1364 15.6443 16.3272 15.7849 16.4678C15.9256 16.6085 16.1163 16.6875 16.3153 16.6875C16.5142 16.6875 16.7049 16.6085 16.8456 16.4679L20.7831 12.5304C20.9238 12.3897 21.0028 12.1989 21.0028 12C21.0028 11.8011 20.9238 11.6103 20.7831 11.4697Z" fill="white"/>
<path d="M11.25 19.5H4.5V4.5H11.25C11.4489 4.5 11.6397 4.42098 11.7803 4.28033C11.921 4.13968 12 3.94891 12 3.75C12 3.55109 11.921 3.36032 11.7803 3.21967C11.6397 3.07902 11.4489 3 11.25 3H4.5C4.10231 3.00045 3.72105 3.15864 3.43984 3.43984C3.15864 3.72105 3.00045 4.10231 3 4.5V19.5C3.00045 19.8977 3.15864 20.279 3.43984 20.5602C3.72105 20.8414 4.10231 20.9995 4.5 21H11.25C11.4489 21 11.6397 20.921 11.7803 20.7803C11.921 20.6397 12 20.4489 12 20.25C12 20.0511 11.921 19.8603 11.7803 19.7197C11.6397 19.579 11.4489 19.5 11.25 19.5Z" fill="white"/>
</svg>
