<svg width="32" height="32" viewBox="0 0 32 32" fill="none" xmlns="http://www.w3.org/2000/svg">
<path d="M16 12C17.0609 12 18.0783 12.4214 18.8284 13.1716C19.5786 13.9217 20 14.9391 20 16C20 17.0609 19.5786 18.0783 18.8284 18.8284C18.0783 19.5786 17.0609 20 16 20C14.9391 20 13.9217 19.5786 13.1716 18.8284C12.4214 18.0783 12 17.0609 12 16C12 14.9391 12.4214 13.9217 13.1716 13.1716C13.9217 12.4214 14.9391 12 16 12V12ZM16 6C22.6667 6 28.36 10.1467 30.6667 16C28.36 21.8533 22.6667 26 16 26C9.33333 26 3.64 21.8533 1.33333 16C3.64 10.1467 9.33333 6 16 6ZM4.24 16C5.31767 18.2004 6.99107 20.0543 9.06997 21.351C11.1489 22.6477 13.5499 23.3351 16 23.3351C18.4501 23.3351 20.8511 22.6477 22.93 21.351C25.0089 20.0543 26.6823 18.2004 27.76 16C26.6823 13.7996 25.0089 11.9457 22.93 10.649C20.8511 9.35232 18.4501 8.66491 16 8.66491C13.5499 8.66491 11.1489 9.35232 9.06997 10.649C6.99107 11.9457 5.31767 13.7996 4.24 16V16Z" fill="white"/>
</svg>
