<svg width="32" height="32" viewBox="0 0 32 32" fill="none" xmlns="http://www.w3.org/2000/svg">
<path d="M2.66667 7.02668L4.37333 5.33334L26.6667 27.6267L24.9733 29.3333L20.8667 25.2267C19.3333 25.7333 17.7067 26 16 26C9.33333 26 3.64 21.8533 1.33333 16C2.25333 13.6533 3.72 11.5867 5.58667 9.94668L2.66667 7.02668ZM16 12C17.0609 12 18.0783 12.4214 18.8284 13.1716C19.5786 13.9217 20 14.9391 20 16C20.0007 16.4541 19.924 16.905 19.7733 17.3333L14.6667 12.2267C15.095 12.076 15.5459 11.9993 16 12V12ZM16 6.00001C22.6667 6.00001 28.36 10.1467 30.6667 16C29.5785 18.7643 27.7293 21.1636 25.3333 22.92L23.44 21.0133C25.2838 19.7379 26.7709 18.0121 27.76 16C26.6821 13.7999 25.0086 11.9464 22.9297 10.65C20.8508 9.35366 18.45 8.66652 16 8.66668C14.5467 8.66668 13.12 8.90668 11.7867 9.33334L9.73333 7.29334C11.6533 6.46668 13.7733 6.00001 16 6.00001ZM4.24 16C5.31792 18.2001 6.99143 20.0537 9.07031 21.35C11.1492 22.6464 13.55 23.3335 16 23.3333C16.92 23.3333 17.8267 23.24 18.6667 23.0533L15.6267 20C14.6989 19.9006 13.8331 19.4865 13.1733 18.8267C12.5135 18.1669 12.0994 17.3011 12 16.3733L7.46667 11.8267C6.14667 12.96 5.04 14.3733 4.24 16V16Z" fill="white"/>
</svg>
