<svg width="32" height="32" viewBox="0 0 32 32" fill="none" xmlns="http://www.w3.org/2000/svg">
<path fill-rule="evenodd" clip-rule="evenodd" d="M8.63514 14.6666C8.73206 14.0707 8.82435 13.4782 8.91602 12.8897C8.99944 12.3542 9.08238 11.8218 9.16779 11.2932C9.43299 9.65204 9.72063 8.05844 10.1136 6.66889C10.5017 5.2965 11.0268 3.9925 11.8395 3.01475C12.7009 1.97844 13.8702 1.33332 15.3651 1.33331C17.2227 1.33331 18.3734 2.75707 19.0799 4.18227C19.8126 5.66031 20.3288 7.63417 20.747 9.71832C21.0607 11.2819 21.3321 12.9777 21.5935 14.6666H32V17.3333H30.6217C30.5119 19.811 30.2004 22.5157 29.6808 24.7891C29.3523 26.2261 28.9221 27.576 28.3579 28.5984C27.8437 29.5305 26.9472 30.6666 25.5238 30.6666C23.4277 30.6666 22.301 29.0811 21.6876 27.6926C21.1706 26.5225 20.839 25.0975 20.5695 23.9396C20.5171 23.7142 20.4669 23.4987 20.4183 23.2973C19.9814 21.4898 19.6335 19.416 19.3075 17.3333H10.8483C10.8021 17.5172 10.7552 17.708 10.7072 17.9035C10.4248 19.053 10.1018 20.3675 9.6364 21.4243C9.02337 22.8164 7.91765 24.3174 5.84128 24.3174C4.46082 24.3174 3.59879 23.2826 3.12212 22.4655C2.61085 21.589 2.25689 20.4932 2.00808 19.498C1.81718 18.7344 1.67562 17.9774 1.57334 17.3333H0V14.6666H8.63514ZM11.5575 13.2587C11.6395 12.732 11.7199 12.2165 11.8003 11.7186C12.0641 10.086 12.3319 8.62407 12.6796 7.39456C13.0322 6.14791 13.433 5.26938 13.8902 4.71934C14.2987 4.22788 14.7432 3.99998 15.3651 3.99998C15.6242 3.99998 16.0963 4.16765 16.6907 5.36667C17.2589 6.51285 17.7217 8.19599 18.1325 10.243C18.411 11.631 18.6552 13.1292 18.8948 14.6666H11.3362C11.4121 14.1914 11.4855 13.7207 11.5575 13.2587ZM4.27679 17.3333H8.09937C8.09068 17.3685 8.08203 17.4036 8.0734 17.4386C7.80206 18.5386 7.55837 19.5265 7.19589 20.3496C6.73501 21.3962 6.31859 21.6427 5.86424 21.6506C5.82366 21.6322 5.66768 21.5369 5.42553 21.1218C5.10346 20.5697 4.82251 19.7607 4.59512 18.8512C4.46591 18.3344 4.36085 17.8136 4.27679 17.3333ZM22.007 17.3333C22.3119 19.2595 22.6278 21.0883 23.0103 22.6709C23.0704 22.9193 23.1285 23.1676 23.1863 23.4141C23.4582 24.5745 23.7212 25.697 24.1268 26.6149C24.6082 27.7046 25.0533 27.9838 25.4846 27.9993C25.53 27.9751 25.7247 27.851 26.0231 27.3102C26.4113 26.6065 26.7747 25.5357 27.0812 24.1949C27.5514 22.1374 27.8439 19.6438 27.9523 17.3333H22.007Z" fill="white"/>
</svg>
