<?xml version="1.0" encoding="UTF-8" standalone="no"?>
<svg
   xmlns:dc="http://purl.org/dc/elements/1.1/"
   xmlns:cc="http://creativecommons.org/ns#"
   xmlns:rdf="http://www.w3.org/1999/02/22-rdf-syntax-ns#"
   xmlns:svg="http://www.w3.org/2000/svg"
   xmlns="http://www.w3.org/2000/svg"
   id="svg9"
   version="1.1"
   width="32"
   height="32">
  <path
     id="path839"
     d="m 15.244827,1.0038355 c -2.23815,-0.10370855 -4.066969,1.9115122 -4.81693,4.212559 -1.1001646,3.0164067 -1.3581843,6.3106995 -1.8739967,9.4995885 -2.5190203,-0.0095 -5.0463451,0.01891 -7.5539002,-0.01332 0.00277,2.970983 0.3628412,6.227048 2.1325049,8.530424 1.5083292,1.925262 4.346163,1.219544 5.4398401,-0.884985 1.1044129,-1.927043 1.4466539,-4.264896 1.8091429,-6.495918 3.165517,0 6.331034,0 9.496551,0 0.625231,4.21417 0.87159,8.660414 2.625573,12.505893 0.801452,1.763202 2.73464,3.280776 4.4522,2.368249 1.550201,-1.313477 2.026512,-3.650391 2.621723,-5.647566 0.813655,-3.369439 1.487005,-6.849496 1.417528,-10.367221 -0.713069,0.09803 -1.266348,-0.02088 -1.975941,0.0044 -2.435276,0 -4.87055,0 -7.305825,0 C 21.131102,10.830629 20.758471,6.6888324 18.843765,3.3161882 18.033038,1.956852 16.699229,0.98851267 15.244827,1.0038355 Z m -0.0058,2.2724129 c 1.746857,0.024897 2.528431,2.2124796 3.050814,3.827311 0.726978,2.4649036 1.075545,5.0495956 1.434734,7.6124236 -3.058124,0 -6.116249,0 -9.174374,0 0.546632,-3.26333 0.731505,-6.7345249 2.16838,-9.6852873 0.518107,-1.0314356 1.45114,-1.8284655 2.520492,-1.7544473 z M 2.9905937,15.852189 c 1.7981824,0 3.5963648,0 5.3945472,0 -0.3911081,2.02511 -0.589667,4.357008 -1.9541912,5.865134 C 5.1917068,22.886746 3.9140454,21.211354 3.6279274,19.841582 3.2279672,18.564052 3.05536,17.204089 2.9905937,15.852189 Z m 18.8742033,0 c 2.381808,0 4.763618,0 7.145426,0 -0.238242,4.002153 -0.914026,8.030944 -2.33003,11.708253 -0.416599,2.131315 -2.290406,0.693353 -2.632546,-0.682859 -1.386425,-3.443879 -1.630774,-7.327184 -2.18285,-11.025394 z"
     style="fill:#ffffff" />
</svg>
