<svg width="32" height="32" viewBox="0 0 32 32" fill="none" xmlns="http://www.w3.org/2000/svg">
<path d="M27.3333 14.6667H25.3333V9.33334C25.3333 8.6261 25.3333 6.66668 25.3333 6.66668C25.3333 6.66668 23.3739 6.66668 22.6667 6.66668H17.3333V4.66668C17.3333 3.78262 16.9821 2.93478 16.357 2.30965C15.7319 1.68453 14.8841 1.33334 14 1.33334C13.1159 1.33334 12.2681 1.68453 11.643 2.30965C11.0179 2.93478 10.6667 3.78262 10.6667 4.66668V6.66668H5.33333C4.62609 6.66668 2.66666 6.66668 2.66666 6.66668C2.66666 6.66668 2.66666 8.6261 2.66666 9.33334V14.4H4.66666C6.66666 14.4 8.26666 16 8.26666 18C8.26666 20 6.66666 21.6 4.66666 21.6H2.66666V26.6667C2.66666 27.3739 2.66667 29.3333 2.66667 29.3333C2.66667 29.3333 4.62609 29.3333 5.33333 29.3333H10.4V27.3333C10.4 25.3333 12 23.7333 14 23.7333C16 23.7333 17.6 25.3333 17.6 27.3333V29.3333H22.6667C23.3739 29.3333 25.3333 29.3333 25.3333 29.3333C25.3333 29.3333 25.3333 27.3739 25.3333 26.6667V21.3333H27.3333C28.2174 21.3333 29.0652 20.9822 29.6904 20.357C30.3155 19.7319 30.6667 18.8841 30.6667 18C30.6667 17.116 30.3155 16.2681 29.6904 15.643C29.0652 15.0179 28.2174 14.6667 27.3333 14.6667Z" fill="white"/>
</svg>
