<svg width="32" height="32" viewBox="0 0 32 32" fill="none" xmlns="http://www.w3.org/2000/svg">
<path d="M17.3333 4H14.6667V17.3333H17.3333V4ZM23.7733 6.89333L21.88 8.78667C22.9599 9.65291 23.831 10.7511 24.4288 11.9997C25.0266 13.2484 25.3358 14.6156 25.3333 16C25.3333 21.16 21.16 25.3333 16 25.3333C14.0736 25.3345 12.1942 24.7391 10.6198 23.629C9.04545 22.5189 7.85346 20.9486 7.20759 19.1337C6.56172 17.3188 6.49366 15.3485 7.01276 13.4934C7.53187 11.6383 8.61266 9.98941 10.1067 8.77333L8.22667 6.89333C6.90163 8.01201 5.83687 9.40656 5.10681 10.9795C4.37676 12.5525 3.99902 14.2659 4 16C4 19.1826 5.26428 22.2348 7.51472 24.4853C9.76516 26.7357 12.8174 28 16 28C19.1826 28 22.2348 26.7357 24.4853 24.4853C26.7357 22.2348 28 19.1826 28 16C28 12.3467 26.36 9.09333 23.7733 6.89333Z" fill="white"/>
</svg>
