<?xml version="1.0" encoding="UTF-8" standalone="no"?>
<svg
   xmlns:dc="http://purl.org/dc/elements/1.1/"
   xmlns:cc="http://creativecommons.org/ns#"
   xmlns:rdf="http://www.w3.org/1999/02/22-rdf-syntax-ns#"
   xmlns:svg="http://www.w3.org/2000/svg"
   xmlns="http://www.w3.org/2000/svg"
   id="svg7"
   version="1.1"
   height="32"
   width="32">
  <path
     style="fill:#ffffff"
     d="m 1.0000001,1 v 7.119856 4.06824 H 1.5694504 5.7722798 12.000419 V 8.119856 H 8.4655288 C 10.482042,6.192829 13.22457,5.0684 15.993734,5.06824 c 2.879828,-1.79e-4 5.74327,1.205401 7.780696,3.276563 2.037517,2.071082 3.225094,4.982472 3.225094,7.911533 H 31 C 31,12.262146 29.382106,8.29189 26.603773,5.467565 23.825349,2.643286 19.920789,0.999763 15.993734,1 12.066587,1.000237 8.1656778,2.646774 5.3908554,5.471053 5.2559694,5.60835 5.1297084,5.752199 5.0004774,5.894791 V 1 Z m 0.1683281,14.851778 c 0,3.965798 1.607073,7.90788 4.3657856,10.712044 2.758621,2.804192 6.6339492,4.436413 10.5330392,4.436178 3.899092,-2.35e-4 7.772595,-1.633748 10.527668,-4.437922 0.133923,-0.136314 0.260264,-0.28042 0.388587,-0.421994 V 31 h 3.970035 v -7.069286 -4.04034 h -0.564078 -4.172388 -6.18337 v 4.04034 h 3.50982 c -2.002146,1.91334 -4.726914,3.028777 -7.476274,3.028946 -2.859474,1.79e-4 -5.702336,-1.19572 -7.7251851,-3.25215 C 6.3189388,21.651114 5.1401552,18.760036 5.1401552,15.851778 Z"
     id="path3270" />
</svg>
