<svg width="32" height="32" viewBox="0 0 32 32" fill="none" xmlns="http://www.w3.org/2000/svg">
<path d="M16 26.6667C19.6193 26.6667 22.8244 24.8531 24.7539 22.0873L20 17.3334L29.3333 17.3334V26.6667L26.6667 24.0001C26.2903 24.5019 25.8769 24.9794 25.4281 25.4281C24.19 26.6662 22.7201 27.6484 21.1024 28.3184C19.4848 28.9885 17.751 29.3334 16 29.3334C12.4638 29.3334 9.0724 27.9286 6.57191 25.4281C4.70956 23.5658 3.45503 21.2092 2.936 18.6667H5.67101C6.85864 23.2613 11.0404 26.6667 16 26.6667Z" fill="white"/>
<path d="M25.4281 6.57193C27.2904 8.43428 28.545 10.7908 29.064 13.3334H26.329C25.1414 8.73878 20.9596 5.33335 16 5.33335C12.3807 5.33335 9.17557 7.14693 7.24606 9.91275L12 14.6667H2.66667V5.33336L5.33333 8.00002C5.71105 7.4964 6.12479 7.01905 6.57191 6.57193C7.81002 5.33382 9.27988 4.35169 10.8976 3.68163C12.5152 3.01156 14.249 2.66669 16 2.66669C17.751 2.66669 19.4848 3.01156 21.1024 3.68163C22.7201 4.35169 24.19 5.33382 25.4281 6.57193Z" fill="white"/>
</svg>
