<?xml version="1.0" encoding="UTF-8" standalone="no"?>
<svg
   xmlns:dc="http://purl.org/dc/elements/1.1/"
   xmlns:cc="http://creativecommons.org/ns#"
   xmlns:rdf="http://www.w3.org/1999/02/22-rdf-syntax-ns#"
   xmlns:svg="http://www.w3.org/2000/svg"
   xmlns="http://www.w3.org/2000/svg"
   id="svg2"
   width="32"
   version="1.1"
   height="32">
  <metadata
     id="metadata8">
    <rdf:RDF>
      <cc:Work
         rdf:about="">
        <dc:format>image/svg+xml</dc:format>
        <dc:type
           rdf:resource="http://purl.org/dc/dcmitype/StillImage" />
        <dc:title></dc:title>
      </cc:Work>
    </rdf:RDF>
  </metadata>
  <defs
     id="defs6" />
  <path
     id="rect815"
     d="M 15.615234,1 C 14.43872,1 13.492185,2.1449994 13.492188,3.5674472 V 4.3290914 H 1 V 8.956223 H 4.7890625 V 27.758717 C 4.7890625,29.554224 6.4301681,31 8.4707031,31 H 23.529297 c 2.040538,0 3.681641,-1.445776 3.681641,-3.241283 V 8.956223 H 31 V 4.3290914 H 18.507812 V 3.5674472 C 18.507812,2.1449994 17.56128,1 16.384766,1 Z M 9.1132812,11.731738 c 0.6358395,0 1.1484378,0.53518 1.1484378,1.198779 v 13.75159 c 0,0.663599 -0.5125984,1.198779 -1.1484378,1.198779 -0.6358391,0 -1.1464843,-0.53518 -1.1464843,-1.198779 v -13.75159 c 0,-0.663599 0.5106452,-1.198779 1.1464843,-1.198779 z m 6.8867188,0 c 0.635839,0 1.148438,0.53518 1.148438,1.198779 v 13.75159 c 0,0.663599 -0.512599,1.198779 -1.148438,1.198779 -0.635839,0 -1.148437,-0.53518 -1.148438,-1.198779 v -13.75159 c 0,-0.663599 0.512599,-1.198779 1.148438,-1.198779 z m 6.886719,0 c 0.635839,0 1.146484,0.53518 1.146484,1.198779 v 13.75159 c 0,0.663599 -0.510645,1.198779 -1.146484,1.198779 -0.635839,0 -1.148438,-0.53518 -1.148438,-1.198779 v -13.75159 c 0,-0.663599 0.512599,-1.198779 1.148438,-1.198779 z"
     style="fill:#ffffff;stroke-width:2.13390422;stroke-miterlimit:4;stroke-dasharray:none" />
</svg>
