<?xml version="1.0" encoding="UTF-8" standalone="no"?>
<svg
   xmlns:dc="http://purl.org/dc/elements/1.1/"
   xmlns:cc="http://creativecommons.org/ns#"
   xmlns:rdf="http://www.w3.org/1999/02/22-rdf-syntax-ns#"
   xmlns:svg="http://www.w3.org/2000/svg"
   xmlns="http://www.w3.org/2000/svg"
   version="1.1"
   id="svg2"
   viewBox="0 0 32 32"
   height="32"
   width="32">
  <g
     transform="matrix(1.1740701,0,0,1.103692,-6.7851216,-1131.8247)"
     id="layer1">
    <g
       transform="matrix(0.10700338,0,0,0.1105857,2.2172156,1022.5977)"
       id="g4903">
      <path
         d="M 210.8688,45.334511 C 180.53936,30.01032 135.78916,32.171882 117.02751,42.875175 l 84.98481,125.562715 0.38526,-91.053486 c 32.54963,15.202883 45.64085,53.115256 45.1721,81.342846 -0.81123,48.85039 -40.0595,90.84184 -87.27802,90.84184 -47.21851,0 -86.605077,-41.73061 -86.605077,-90.58863 l -32.438656,0.001 c 0,67.36491 55.34428,121.15812 120.450003,121.15812 65.10574,0 116.64303,-54.06983 118.3104,-121.41133 1.18072,-47.68653 -25.93084,-91.009553 -69.13953,-113.394138 z"
         id="path596"
         style="fill:#ffffff" />
    </g>
  </g>
</svg>
