<svg width="32" height="32" viewBox="0 0 32 32" fill="none" xmlns="http://www.w3.org/2000/svg">
<path d="M17.3333 4H6.66667C5.95942 4 5.28115 4.28095 4.78105 4.78105C4.28095 5.28115 4 5.95942 4 6.66667V25.3333C4 26.0406 4.28095 26.7189 4.78105 27.219C5.28115 27.719 5.95942 28 6.66667 28H17.3333C18.0406 28 18.7189 27.719 19.219 27.219C19.719 26.7189 20 26.0406 20 25.3333V22.6667H17.3333V25.3333H6.66667V6.66667H17.3333V9.33333H20V6.66667C20 5.18667 18.8133 4 17.3333 4Z" fill="white"/>
<path d="M24.6667 22.6667L22.7733 20.7733L26.2267 17.3333H13.3333V14.6667H26.2267L22.7733 11.2133L24.6667 9.33333L31.3333 16L24.6667 22.6667Z" fill="white"/>
</svg>
