<?xml version="1.0" encoding="UTF-8" standalone="no"?>
<!-- Created with Inkscape (http://www.inkscape.org/) -->

<svg
   xmlns:dc="http://purl.org/dc/elements/1.1/"
   xmlns:cc="http://creativecommons.org/ns#"
   xmlns:rdf="http://www.w3.org/1999/02/22-rdf-syntax-ns#"
   xmlns:svg="http://www.w3.org/2000/svg"
   xmlns="http://www.w3.org/2000/svg"
   xmlns:sodipodi="http://sodipodi.sourceforge.net/DTD/sodipodi-0.dtd"
   xmlns:inkscape="http://www.inkscape.org/namespaces/inkscape"
   width="5.8208299mm"
   height="4.2333341mm"
   viewBox="0 0 5.8208299 4.2333341"
   version="1.1"
   id="svg832"
   inkscape:version="0.92.5 (2060ec1f9f, 2020-04-08)"
   sodipodi:docname="savenexit-2.svg">
  <defs
     id="defs826" />
  <sodipodi:namedview
     id="base"
     pagecolor="#ffffff"
     bordercolor="#666666"
     borderopacity="1.0"
     inkscape:pageopacity="0.0"
     inkscape:pageshadow="2"
     inkscape:zoom="3.959798"
     inkscape:cx="-66.578558"
     inkscape:cy="13.361078"
     inkscape:document-units="mm"
     inkscape:current-layer="layer1"
     showgrid="false"
     inkscape:window-width="1280"
     inkscape:window-height="995"
     inkscape:window-x="0"
     inkscape:window-y="28"
     inkscape:window-maximized="1" />
  <metadata
     id="metadata829">
    <rdf:RDF>
      <cc:Work
         rdf:about="">
        <dc:format>image/svg+xml</dc:format>
        <dc:type
           rdf:resource="http://purl.org/dc/dcmitype/StillImage" />
        <dc:title></dc:title>
      </cc:Work>
    </rdf:RDF>
  </metadata>
  <g
     inkscape:label="Layer 1"
     inkscape:groupmode="layer"
     id="layer1"
     transform="translate(-189.10149,-22.740476)">
    <path
       inkscape:connector-curvature="0"
       style="fill:#ffffff;fill-opacity:1;stroke-width:0.26458332"
       d="m 194.92232,24.857143 -1.05833,-1.058333 v 0.79375 h -2.38125 v 0.529166 h 2.38125 v 0.79375 z m -5.82083,1.5875 v -3.175 c 0,-0.140343 0.0557,-0.27494 0.15499,-0.374178 0.0992,-0.09924 0.23383,-0.154989 0.37417,-0.154989 h 3.175 c 0.14034,0 0.27493,0.05575 0.37418,0.154989 0.0992,0.09924 0.15499,0.233835 0.15499,0.374178 v 0.79375 h -0.52917 v -0.79375 h -3.175 v 3.175 h 3.175 v -0.79375 h 0.52917 v 0.79375 c 0,0.140335 -0.0558,0.274928 -0.15499,0.374174 -0.0993,0.09924 -0.23384,0.154993 -0.37418,0.154993 h -3.175 c -0.14034,0 -0.27493,-0.05575 -0.37417,-0.154993 -0.0992,-0.09925 -0.15499,-0.233839 -0.15499,-0.374174 z"
       id="path2" />
  </g>
</svg>
