<svg width="32" height="32" viewBox="0 0 32 32" fill="none" xmlns="http://www.w3.org/2000/svg">
<path d="M16 20.6667C14.7623 20.6667 13.5753 20.175 12.7002 19.2998C11.825 18.4247 11.3333 17.2377 11.3333 16C11.3333 14.7623 11.825 13.5753 12.7002 12.7002C13.5753 11.825 14.7623 11.3333 16 11.3333C17.2377 11.3333 18.4247 11.825 19.2998 12.7002C20.175 13.5753 20.6667 14.7623 20.6667 16C20.6667 17.2377 20.175 18.4247 19.2998 19.2998C18.4247 20.175 17.2377 20.6667 16 20.6667V20.6667ZM25.9067 17.2933C25.96 16.8667 26 16.44 26 16C26 15.56 25.96 15.12 25.9067 14.6667L28.72 12.4933C28.9733 12.2933 29.04 11.9333 28.88 11.64L26.2133 7.02666C26.0533 6.73333 25.6933 6.61333 25.4 6.73333L22.08 8.06666C21.3867 7.54666 20.6667 7.09333 19.8267 6.75999L19.3333 3.22666C19.3062 3.06962 19.2244 2.92723 19.1024 2.82473C18.9804 2.72223 18.826 2.66623 18.6667 2.66666H13.3333C13 2.66666 12.72 2.90666 12.6667 3.22666L12.1733 6.75999C11.3333 7.09333 10.6133 7.54666 9.92 8.06666L6.6 6.73333C6.30667 6.61333 5.94667 6.73333 5.78667 7.02666L3.12 11.64C2.94667 11.9333 3.02667 12.2933 3.28 12.4933L6.09333 14.6667C6.04 15.12 6 15.56 6 16C6 16.44 6.04 16.8667 6.09333 17.2933L3.28 19.5067C3.02667 19.7067 2.94667 20.0667 3.12 20.36L5.78667 24.9733C5.94667 25.2667 6.30667 25.3733 6.6 25.2667L9.92 23.92C10.6133 24.4533 11.3333 24.9067 12.1733 25.24L12.6667 28.7733C12.72 29.0933 13 29.3333 13.3333 29.3333H18.6667C19 29.3333 19.28 29.0933 19.3333 28.7733L19.8267 25.24C20.6667 24.8933 21.3867 24.4533 22.08 23.92L25.4 25.2667C25.6933 25.3733 26.0533 25.2667 26.2133 24.9733L28.88 20.36C29.04 20.0667 28.9733 19.7067 28.72 19.5067L25.9067 17.2933V17.2933Z" fill="white"/>
</svg>
