<?xml version="1.0" encoding="UTF-8" standalone="no"?>
<svg
   xmlns:dc="http://purl.org/dc/elements/1.1/"
   xmlns:cc="http://creativecommons.org/ns#"
   xmlns:rdf="http://www.w3.org/1999/02/22-rdf-syntax-ns#"
   xmlns:svg="http://www.w3.org/2000/svg"
   xmlns="http://www.w3.org/2000/svg"
   id="svg2"
   xml:space="preserve"
   enable-background="new 0 0 32 32"
   viewBox="0 0 32 32"
   height="32"
   width="32"
   version="1.1">
    <g
     transform="translate(0,-8)"
     id="background"></g>
    <path
     style="fill:#ffffff;stroke-width:1.42857146"
     d="M 31,18.141784 V 13.857143 H 26.498929 C 26.23107,12.5425 25.717856,11.32 25.017141,10.229286 L 28.229284,7.0160713 25.197141,3.9860714 22.033213,7.1489283 C 20.878216,6.3592856 19.561429,5.7892856 18.142856,5.5010713 V 1 H 13.857141 V 5.5010713 C 12.488929,5.7796427 11.218214,6.320714 10.094286,7.0642854 L 7.015,3.9860714 3.9839286,7.0149997 7.063214,10.096429 C 6.319643,11.220357 5.778572,12.49 5.501071,13.857143 H 1 v 4.285716 h 4.502143 c 0.288214,1.41857 0.858214,2.735355 1.647857,3.890355 l -3.165,3.163929 3.032143,3.032143 3.212143,-3.213215 c 1.091785,0.700715 2.314285,1.215002 3.628927,1.482856 V 31 h 4.284641 v -4.501073 c 1.367145,-0.27857 2.63893,-0.81857 3.762859,-1.563211 l 3.2925,3.29357 3.032141,-3.032143 -3.29357,-3.2925 c 0.743572,-1.125 1.284645,-2.394643 1.562145,-3.762859 z M 16,22.4275 C 12.450357,22.4211 9.577857,19.5475 9.570357,16 9.578957,12.450357 12.450357,9.5778571 16,9.5714286 19.548571,9.5778586 22.42107,12.449286 22.4275,16 22.4211,19.548573 19.548571,22.421071 16,22.4275 Z"
     id="path9"/>
    </svg>
