<?xml version="1.0" encoding="UTF-8" standalone="no"?>
<svg
   xmlns:dc="http://purl.org/dc/elements/1.1/"
   xmlns:cc="http://creativecommons.org/ns#"
   xmlns:rdf="http://www.w3.org/1999/02/22-rdf-syntax-ns#"
   xmlns:svg="http://www.w3.org/2000/svg"
   xmlns="http://www.w3.org/2000/svg"
   version="1.1"
   id="svg2"
   height="32"
   width="32">
  <g
     transform="matrix(1.0412853,0,0,1.0695634,-0.44600323,-2.052016)"
     id="g3591">
    <path
       id="path816"
       d="M 15.330078,2.8535156 1.3886719,3.7382812 12.580078,12.095703 c 0,0 -0.532498,-2.4458139 -0.398437,-3.6503905 2.802023,1.2340385 5.103841,2.6174685 7.011718,4.3808595 1.987153,1.836663 3.597054,4.131225 4.980469,7.128906 -1.115632,0.04018 -3.324219,-0.583984 -3.324219,-0.583984 l 7.884766,11.53125 1.464844,-13.892578 c 0,0 -2.476413,2.146901 -3.992188,2.597656 -1.524731,-3.441012 -3.345021,-6.113804 -5.65625,-8.25 C 18.363027,9.3353492 15.762164,7.8064787 12.664062,6.4726562 13.189903,5.0683613 15.330078,2.8535156 15.330078,2.8535156 Z"
       style="fill:#ffffff" />
  </g>
</svg>
