<?xml version="1.0" encoding="UTF-8" standalone="no"?>
<svg
   xmlns:dc="http://purl.org/dc/elements/1.1/"
   xmlns:cc="http://creativecommons.org/ns#"
   xmlns:rdf="http://www.w3.org/1999/02/22-rdf-syntax-ns#"
   xmlns:svg="http://www.w3.org/2000/svg"
   xmlns="http://www.w3.org/2000/svg"
   id="svg2"
   width="32"
   version="1.1"
   height="32">
  <path
     id="path13"
     d="m 30.950746,3.3754266 -5.361638,-0.014226 -0.1299,0.7430601 H 6.4105181 L 6.2425542,3.3737939 1.0120342,3.3611999 1.0000002,5.6534399 4.4519087,5.6924329 8.8232317,28.6388 H 23.66726 L 27.414694,5.6288124 31,5.5487739 30.950751,3.3754262 Z M 8.3122181,5.1424262 h 6.1629499 l -3.068136,1.8593514 z m 8.1126009,0 2.070775,1.1786985 2.136367,1.2942804 -4.102477,2.4627169 -4.104528,-2.4647691 4.020385,-2.4360382 z m 2.152825,0 h 6.169107 L 21.649884,7.0038299 Z M 6.5985773,5.3373913 10.391161,7.6154051 7.38049,9.4398681 Z M 25.130524,6.1357221 24.689287,8.8447101 22.665755,7.6174572 Z m -13.721439,2.0912575 4.100424,2.4627174 -4.106581,2.466821 -3.7248597,-2.150773 0.7167181,-0.951722 z m 10.236694,0.0021 2.862909,1.7341645 -0.28116,1.7259529 -2.557122,1.475579 -4.120947,-2.475031 z m -5.116295,3.0742924 4.100424,2.462716 -4.084006,2.358052 -4.102476,-2.36626 z m -8.5907782,1.067176 2.4339852,1.405802 -1.9250237,1.272403 z m 16.0692302,0.658777 -0.24422,1.498154 -0.995152,-0.782162 z m -12.594746,1.346285 4.079901,2.356 -4.153783,2.399097 -2.3867836,-1.43453 -0.2893693,-1.514572 z m 10.246955,0.0082 1.916816,1.29703 -0.420715,2.587905 -1.420167,0.85169 -4.14147,-2.388836 z m -5.116295,2.95526 4.159939,2.401149 -4.172253,2.507867 -4.161991,-2.499658 z m 5.198386,3.00041 0.932643,0.878167 -0.456518,2.805647 -1.393487,0.804488 -3.275415,-1.968122 z m -10.413189,0.0103 4.182514,2.511971 -3.261047,1.957861 -2.181557,-1.258038 -0.4248191,-2.239021 z m 5.200437,3.123547 3.254891,1.953754 -1.876223,1.038447 -2.874968,-0.03924 -1.744225,-1.007494 3.240525,-1.945473 z"
     style="color:#000000;font-style:normal;font-variant:normal;font-weight:normal;font-stretch:normal;font-size:medium;line-height:normal;font-family:sans-serif;font-variant-ligatures:normal;font-variant-position:normal;font-variant-caps:normal;font-variant-numeric:normal;font-variant-alternates:normal;font-feature-settings:normal;text-indent:0;text-align:start;text-decoration:none;text-decoration-line:none;text-decoration-style:solid;text-decoration-color:#000000;letter-spacing:normal;word-spacing:normal;text-transform:none;writing-mode:lr-tb;direction:ltr;text-orientation:mixed;dominant-baseline:auto;baseline-shift:baseline;text-anchor:start;white-space:normal;shape-padding:0;clip-rule:nonzero;display:inline;overflow:visible;visibility:visible;opacity:1;isolation:auto;mix-blend-mode:normal;color-interpolation:sRGB;color-interpolation-filters:linearRGB;solid-color:#000000;solid-opacity:1;vector-effect:none;fill:#ffffff;fill-opacity:1;fill-rule:nonzero;stroke:none;stroke-width:2.17368722;stroke-linecap:butt;stroke-linejoin:miter;stroke-miterlimit:4;stroke-dasharray:none;stroke-dashoffset:0;stroke-opacity:1;color-rendering:auto;image-rendering:auto;shape-rendering:auto;text-rendering:auto;enable-background:accumulate" />
</svg>
