<?xml version="1.0" encoding="UTF-8" standalone="no"?>
<svg
   xmlns:dc="http://purl.org/dc/elements/1.1/"
   xmlns:cc="http://creativecommons.org/ns#"
   xmlns:rdf="http://www.w3.org/1999/02/22-rdf-syntax-ns#"
   xmlns:svg="http://www.w3.org/2000/svg"
   xmlns="http://www.w3.org/2000/svg"
   id="svg5"
   version="1.1"
   height="32"
   width="32">
  <metadata
     id="metadata18">
    <rdf:RDF>
      <cc:Work
         rdf:about="">
        <dc:format>image/svg+xml</dc:format>
        <dc:type
           rdf:resource="http://purl.org/dc/dcmitype/StillImage" />
        <dc:title></dc:title>
      </cc:Work>
    </rdf:RDF>
  </metadata>
  <defs
     id="defs16" />
  <path
     id="path4155"
     d="M 12.888939,1.0000407 C 8.263596,1.0165738 8.3513728,4.8744329 9.4356999,7.5071764 l -8.43570011,-0.00286 0.0249534,7.4972966 c 1.3734394,-1.384466 6.880115,-2.148106 6.9250451,2.671221 0.04493,4.819327 -4.3745243,4.840864 -6.8945452,3.541737 0.00925,2.638644 0.018485,7.137917 0.027727,9.776562 3.3485051,9.81e-4 5.3410778,0.0021 8.6895835,0.003 -0.825694,-2.714421 -1.046022,-6.336732 4.3029484,-6.167353 4.004764,0.126813 3.186626,3.925479 2.668954,6.170279 l 6.969342,0.0029 v -8.638692 c 1.867226,2.142741 5.716513,1.463035 6.809474,-1.110745 1.399797,-2.571759 -0.439464,-6.241808 -3.494281,-6.392622 -1.20147,-0.324532 -2.760677,0.878855 -3.317965,1.121697 V 7.5101468 c -2.326301,-9.549e-4 -5.770754,-0.00191 -8.097055,-0.00286 0.860256,-1.5550066 2.133762,-6.4570482 -2.725242,-6.5072411 z"
     style="fill:#ffffff;fill-rule:evenodd;stroke:none;stroke-width:1.17604101px;stroke-linecap:butt;stroke-linejoin:miter;stroke-opacity:1" />
</svg>
